<svg xmlns="http://www.w3.org/2000/svg" width="40" height="40" viewBox="0 0 40 40" fill="none">
<rect width="40" height="40" rx="4" fill="#F4F6FD"/>
<path d="M33.0954 7.70915V32.5185H25.8197V30.1977C24.9197 31.2127 23.8021 32.0112 22.5503 32.5336C21.2985 33.056 19.9448 33.2889 18.5904 33.2148C12.2197 33.2148 6.98633 27.5056 6.98633 20.1139C6.98633 12.7221 12.2313 7.01291 18.5904 7.01291C19.9457 6.94025 21.3 7.17493 22.5518 7.69939C23.8037 8.22386 24.9208 9.02453 25.8197 10.0416V7.72076L33.0954 7.70915ZM25.8197 20.1139C25.8197 18.5751 25.2084 17.0993 24.1203 16.0112C23.0322 14.9231 21.5564 14.3118 20.0177 14.3118C18.4789 14.3118 17.0031 14.9231 15.915 16.0112C14.8269 17.0993 14.2156 18.5751 14.2156 20.1139C14.2156 23.8387 16.6409 26.1712 20.0177 26.1712C23.3944 26.1712 25.8197 23.8039 25.8197 20.1139Z" fill="#2027D2"/>
<path d="M20.1454 23.2796C20.7518 23.2934 21.3485 23.1263 21.8595 22.7994C22.3704 22.4726 22.7724 22.001 23.0141 21.4447C23.2558 20.8884 23.3263 20.2727 23.2165 19.6762C23.1067 19.0796 22.8217 18.5294 22.3978 18.0956C21.9739 17.6618 21.4303 17.3641 20.8365 17.2406C20.2427 17.1171 19.6255 17.1733 19.0638 17.4021C18.5021 17.6309 18.0213 18.0219 17.6827 18.5252C17.3442 19.0285 17.1633 19.6212 17.1632 20.2277C17.1586 20.6239 17.2321 21.0172 17.3795 21.385C17.5268 21.7528 17.7452 22.0879 18.0222 22.3713C18.2991 22.6547 18.6291 22.8808 18.9934 23.0366C19.3578 23.1925 19.7492 23.275 20.1454 23.2796Z" fill="#62E1FC"/>
</svg>